<mxfile host="app.diagrams.net" agent="Mozilla/5.0 (Windows NT 10.0; Win64; x64) AppleWebKit/537.36 (KHTML, like Gecko) Chrome/128.0.0.0 Safari/537.36" version="24.7.14">
  <diagram name="Page-1" id="ufhwjs4pX0LAgkxQpJCP">
    <mxGraphModel dx="1434" dy="780" grid="1" gridSize="10" guides="1" tooltips="1" connect="1" arrows="1" fold="1" page="1" pageScale="1" pageWidth="827" pageHeight="1169" math="0" shadow="0">
      <root>
        <mxCell id="0" />
        <mxCell id="1" parent="0" />
        <mxCell id="54Q1VLm8ovTNl_bD1-47-2" value="" style="whiteSpace=wrap;html=1;aspect=fixed;" vertex="1" parent="1">
          <mxGeometry x="110" y="90" width="110" height="110" as="geometry" />
        </mxCell>
        <mxCell id="54Q1VLm8ovTNl_bD1-47-1" value="" style="shape=image;verticalLabelPosition=bottom;labelBackgroundColor=default;verticalAlign=top;aspect=fixed;imageAspect=0;image=data:image/png,iVBORw0KGgoAAAANSUhEUgAAAMgAAAD8CAMAAAAFbRsXAAAA7VBMVEUAAAC8EUL///91qSi/EUPCEkR3rCl5rynFEkW6EUFypSe7EUKtED2kDzqyED6ODTLY2NiHDC9VCB74+Ph4CypkCSNsCiZ+CywgAwuUDTQVAgecDjdNBxuBDC02BROiDzmzs7NjjyImNw0XIQhagh81TRJMbholAw3j4+PFxcV7e3s8PDxqmSSKioorPg9TeBxlZWUrBA8WFhYeKwo+WRUNEwVQBxxCBhebm5tKSkoqKiozMzOmpqYwRhBubm4eAwpYWFi8vLxCYBdnlCPe3t5JaRkUHQeQkJAIAQNQUFAbJwkPFQVBXhYrKysSEhLbwgtUAAAbZ0lEQVR4nLVd+V8TOxBvYa/WUmgLaKECLS1nuUEEQRFEeTz1//9zXvZIdpLM5Fj65gflA7tJvpkzk0m2NleJlrb296q9aaHe/tZ+r8qLNY8+7k5vb/85Yv3c1VK6vavUo4n2H7KWv/bmlj6f/rm9+eU+W+5AtmqcDsVPB1tfb8/PH/arDBrQ3kHayt3dLW/3/I/owbUNByC9zw+Hhzf/1Ax0s8Qeq8Kf9KXeganpL/+wzo+WZgDku6kbQf/cnNduH757ofhxcPj3/PDBqX0rZwxA9r7f/fp1d+fUD6dDDxNgZIRGX7c+/7r7TnOGBPL53KsfQT9ccdxUa/8rMVUEkH2imct7/tPj49uQHBKvP0/4T5MJ/sSRBxBSL3424+HjdvbjtHlZdKg8833/u1lXlr7v76u2o5igx/lh9v/F81P8RA3i1AVIb+vo9EGX3ufJqPhpGsXR8Jj9cBzHTxmk8fBKe96kK4hubE+f0/9G0zh6TadmGEVRjqh2NbrUeH96enpwp3BeAXJETMJ2M24+7aRgRtH8fBQPL2oX8Xw0nzLlMm5mKO+34RtbBIy9P/CpUfbmZD5Op+Y5Zm1f1Y6n6f9x+ofjk6dmPP0XH9ODNFkyEJXhV//yyX5lw47i5vj4nnXCoEQ74/SHeIdxhE1fKl6T5it89xeKY0lqfxRfsH8fWdtpO3Ha8MlJnPUQb0/GzZg13eRDKAfDCSKRgHyWnxs25+OoOR0+p9P2lAPIe8mgZP/F40naf8yQ3McyEsz0y0bkOIp/poxIm7sfxrBd0VU0Th98Hk6bcTzfPJHeP6SAKIB/NqOs5ZQTv3n7KkV5//F9bYfNniQFunmRcTApjS9rv4sGqA6av4fsjzmoqTJC4FYgkD3lsdpVUwyX6qaky1R5mtL7nxUccgcX+TCtLZc8UnHADiCQQn5H9zlNJpcn9vGX/Ym+toUAyNFk7y///TibpUi85tjDzuVkUgzuQuU5whFmVzl59MI7G6bKIpBIgeSDwJHq+LRC4+XIciB3Zh3Zib27KImBGEfx76KpB9C6iNqYXXquDf1xgE4uNY5LQLirqjBZEEn6z3HRVOlOehzHJZun5vgtk8Wd5d85AsiPGheuN/RSSD23+UK4TrmO+6qGTvGrbkxwP/L0pn6ygRaTJryJ8ITNt7fNVZDyI6V1vH8TSzKKeYRUuF8e7Z7MoGkRCxHKDgKtpr05G0UF/79mbXNX+DapzRsuw+I/OBCwRFAdSNPBI6r9ceHag2372xEWL8i/iEE0vIcBKfzV1fHF9r+qv33aGXrrZ1wsVI6Ahjx6MoQFQOOTqfK7yc/Xi8Iq7mNA5r4Uk5bGnFqL4+PHqZ+DFBFFT5isKz+RjaLp5f1Y6zRmjnFo4Ah3IyN01iJmKy5O6NgOIe62toQP8XG1jBknr/+OiQ5/Zu3dmq3Wb7y7KF00XD55QClCyBvh1H1gDCdZDID+lUstETQKz05NXMRCi4wtjqOJi5V479BPQ9i64eRnOgxizjirz+cIIHM8Z0n2GGcZB1dt4YaL2/Wp/ZUMxjTrhLQunB9wOaIAeeBmbUJ2E09TgzFxk7C4BglXPg1GltqYTKmHoybPg0ixtQSkBzol7UsUj1PPOho6uBYuA4XE2l+IonEaoF8MaczTn6LBLQpIETRm69UJ3VSm9ay3sRVKtuAWZHWG0fxJOkdXJ4aGo4wfV6quy0D2ODfGO2OjxY+bmZi+UsZRkLQ4tUgWm59sCn+bXW/zZGc8zaOtOwpIubKyznU8fHWBEoNshDnMiuKTbJpHpHKIJyMusbSy8zjeYfkWxZl81V6HJijxqARyaRghU7wcMuU5pEaLMP7LHAlEaLvLgiRu5m5i9ESPMAaJ4UeyzSxzmWF1Wazw8ERObSgpU5G9NgwONDm+Kvon/Q4wW8+kX5jmM/LTYKtgp0V7ci5bTWKLDLNTo1GzmPEdQqkgRwggUfORc8zJNfHl4W3PCISHwEUq1t5uwZRtHLhVR4RybDvJwHyhmYqmY0DEzqq2uMJJMGWCyXcM8s6YY8/jBGd2zEfPNUcgxepq++Jqmw5TlMFwodV5KCc59UUOn98rJ0Fm1Lz/eXWRu/Z9MxDOkWEcO68domYxrccqU+JnCERdIsXTi4KZ7qtPNqyxm2jx9JNXBk1IrpIjiSCOdGsI/o16ydIVV/aeBYjI/Ps1z7ff7iFTZIbILImmhR14tbpyqSPe5Nc5C5C5B96tV6JABNdA3CNtO7MMG4VieYhVGp0Ic65uUupAesJuaSJvJJG45v5C386ovRYtRhF3lF4Jc6FUmqqj29M94UqcjUneDZfefALQ7eXtjCeRGFC1DhAc+D672JBhzsGnIx4EXbH1Yyxv9wli4XL5nFe6jrucmmaxSCBF9cZodH/ptswuKJpy/zceSvuikEZPXF8vvEQ3Gk7uR4UiIrv4KJCH/PEdD19SdNbcRoZOIfLMXab7VYUeImNGgfA0lJdFyTubJzmh0rF/Fpg73n9cgYhlCREKGju7oEb+RhyRsNiIqlNFNVuiPzotQyJx4snIOyU+FYVJD9iQiTInUPjySK6aCCS6+0DIF0azXNjcojWHVOEZLOF5ds6RZkDG+rB18trci5tgofkFr50kK+i2YLfkKhXr9b7mQESiHKff4EU1xrICmdsravUuRqPfPt7ESbKQxYmBni5Ho8KukyVthuLMwnb9HHpVQMhZUpr8tkqKpJeUknMGIla9xy5pXt6nI0N89luLhHBKdGGeCUhZKXux03TkSuzsEB23wKNouiPChRt6sMYCZlgxO3LC4ipYKTkIVxRPd0AeBgsWnYAoBVwXVuOlLgnNZF+DPsphglr/5Qxkbu+L1JC+warg+F3zIhtPoh3pcare0wEIcyeiKPRqx+LiRUznThOLFYmnJYuPzIcI7EX+S3wH8GInLZCMImQXfl6K6TzoJ57LzzqJ4+bTc6HnD99tZyFczo+URbT/Xkyed07GU21FFEXDETFWC93ru5FR82l8svN4f1GmKe1HOlyAIAXm0nZguptcEUZKx2O5DCHSNQ0tIvcHMvegNixKMZgARM0TohrfnSbjZiR2yRCf6nCYwwlITzkiMeFVktPxzsRjcWui18nJcFo0q1oN+3ke5zNWW39Bu9uXk8vJ/WhGCBQ8o3vW+AQWQh84nXlyPiy2f/CF7J2k69XFhUaQUmu9093wb+D8dMvx6JbH8b0lPyQv3X4jDIOgnlMQhEG7M/AEQke7lYGYz6ZpdLbYCDmGkoKwvfzNq51DF/3wAUKdVSJg9BEUOYXB4q5XW/hJpIpAel99un5ZJGHkQvbRC8mtE1OcgCz9VdreWO2stxphkiRho7XZX5bUuNswwci40ujKyDc+rTDqbqzhUExRrw8Q+Sjit9X1IFViMVqmxi3w935igZFS0hfPd1phEhaUhK3+6rWOBM1keQORtLzLUGgTHnTE39daoQMOxpTWh2JeAqk5NithY1Ezbnguyw/IA2hvpYVKf3DGH9i1ipV4p1HI4yZu3FQpsx1vtAIB0ck1DqMevvfHkSLJ4V+jLAzrywoSi8rbgAAcHcIWBQvikZY7DvZeO5/1RVwYVYtg4YkFyKlo5qxNCr9wcX03/RBI1s3ww/UXCYlRT8xAyrL/QUBNdiKszMAPBxtpPudnVNNBQ7Jgf0xDNQIpV1QrpE0NV8RDCz6ClQ20MNsDunVJvEzrKxOQPRccpU5+8MXB3r62tZ+sQCSGPIoJiFirfyJlJgTRBm5+zEBWi3eXyXcTiSe0mhiACME6e0cOpAM62fDnSLDIX/5IzxXUE1q4DEDE26RRlXDUag1/IGUDNJIGDPxJb0IDESfH3lNdKDhqi94sEaJVS90UhXYT9EGmsWkgQrBccdQ2vJUkhGFzh9J4CBfd0TUC2eJvIrFQ3vz7mkq0eOAkzTVjPYUkAIEXFQiTQPjprmuidWmabKAJCpV0xDLRVwB573cLR3n+cR0fW7hSw2jBhyf6XKwSr4dA3/GbC0ggPDjBNSQIPqE4GG53JKEa3zJaIeJSwJJbfMAUEJ76+YiuPxp0imqZDMrUuUB5OniHvw4ewaNgAoiITtrYGNofSBzMdm0aUw9FE+HmGf76WRt7G0oyvoIngPBlOqbq4SY6AjCrm4kZSpC0uuTb6GKZR/wpYbVBJBC+DlnWR6S5D4Q2Oo2QELE049hH8guAMD0LwN99gPAtdj0yR80uQoNOS062MAjsF2FrkWYGJySWCEE+Ag1TcCBcRV5UFVGWOmZaGyx3FlrtxjuG5l273VrvrF67JUxXNHYGwP2iwTwOhHsRNegIF4gUmhHPt93dD99e7A8C2lBVHgYBaBLVXHimLERc1MODrpcXGcPardb6+xU1H/yiKkq7/JvTbU458chXWu8Qlp91er2yury8vPrJZJVVGvQbSaFCmfK0Piq+SVEU4NxRl4gD4clF6A7DFmr5u4utLOOZKnLS6BNYtbdaqoUOmE2WX5Z9I4zL3IE8FG+UK4wg0YPddFpD2fsxOIuEpwO0sYA6miBsSCbxZRMwBZotdyA89O3z/sI2Yq26aOYxCBctFmGVdv1hS+pntbRe0LdjATAOhLuRIvQNQmRHg0qgpjba6CqMabxANihnginQf2HRFg6E74dkQFhchMSIVAI179WwlWOLj8OWZMFW63k/MFbGPCLh70sgQYjFRRt0AjXvtq+/48CPnCl1aVfhW77/9TYgq+G7PrYRq3teDck68lrNkMmQXpbN10ZqUhIgWs5AtBvDFKKWpNJgUOfpmB5W158fVtehBcE2rU2nFSgi0x0SJZhLcU19hebIEkk4YkCWjI3QCSiVdEfvnmYJjcEpEm0hQH78MbVhSNMqFGhq8sEVBqOG0RnpAbAO5LOpAeYFPbIL6qz65L0C8zr0QZUu8kAlQbsek6qNxSs5jCVZAJ2brwDt2QpnvHYJE9mRejAzmwdL0LZvANKzXfLrrCD5UGQT3PeZBEzHTEjke1FgqcbGiu4Kdz2Tu23pbb93GUPlLOBikizITNqngMDLhDtsfbGgrk+J/Ck9FChbZFqfoqAl9R2mYZ+sOMQVoEDPr7NYSo0zqIQ2SVLKZcV/1wG4xULBwgXonf72MCDA7i4XoW0oS5dnsp3NIIwdkRyZ7fWyFEEkpuQ8zg0CBPhzEaFKA6mwkQNH4qvrKZXr211QjARV55cOpDS8YMXQgFriv7VWb4DXfRWsDrNZUC5DiGRJBfKrFCD4DuDjGrm5S1MCAg1vwawDsydNIhzVrQKkjNyllQ/UVn9lZUCAalYBImRLeRk0eycDeeC/l11euRFeScbrCVi2VgLCJ1KObiTd60EgQtOV8gXoXf230WUgFXSk7F/N3YLk1C8IRDBEybkCn1ShQoMBAUnrKhzlSvKidh4AV9srgQgN0QLtd+JxaqPSSCFQdn8/wijJ3/2gAQGR9ecSCE+RIrGUeLyC8ZWDrSrGgmu7Ht4AX31eAjEMVjxeRVclpfT3p3URpejvwqb3OZCt4hdrSCwlnq6i63JkUIWlRT4FmQSQ1T7lQB6KX7xHunrbMKSkdBWzVQBBIme42OnlQMTNCNhe9JuAyEvEKuaimApN2evQDqVnqlMg/CQCGqW/CQgMtSosSOqCI5r5rUuBykEOhJdrYJJVmp0qur5Yk8i7erPMOWI71qVTvM2B3ND9ANtQRcCVipUKBphPOwYEuJK9FAhXkTWkHRCiVLBasmRVaiMp1hGY+oLm91Mg3K1vICoChMNfLvTSNL8kTEbFm5gXA/HP5xQI13WM8eDwjb9nD7TqAO8ljZAILFCTtL1WFtBgsRDI73sbzwDZWPBliciaYIYIDO4mBcKTDh3s2TKi8Y9+sUNhaBGTAQh3RJi4AHd7ngLh1heTHRgte2oqUrxZM5XBoySsP7ZDBOOGFAgPfTExhMkHPyUJ5CyjIOfdlWyoIh+HFd7DbF0KhB/Nw4DA0fjJVkgdAvURLlAni5gJiiPIjMvRq08mnt6g3nVvBUonEnGqQLiOIHWYgZRq9XDM0kJEIffzMnDXChkdDByg1UJMoyIfziwJGqbyLNcJkfZ2kc0VsCK5hX4EaT+QLai7lphPfLshkYsOkEMdYTlbN9CzIyGKlNevOZucwFYv6IJENXtatAV3HQ5grLWmOQo1DHcTrqBur3u8JuqUQSsNZXdbM6rQEmWxlthv08JCvQB+zToANpP2gi37UdjgnRoXaFyERiuLfsVZKi2eCfUg48x29pMqQtFo2Vhe1NK22bVDfjCvnK1HhNlSl7qBqiIp7Rodmro3ltHa7u4HxIqdrZMFX2ghiyLWcHRf8hWiSPwq+hSg0ZJW/wkHoFS8n610NtuZ6jUarf7ytQJngJbRB+ECqmSKwMApOyrSQVxJlPg3IZR2pYGfxVAquzbet4JQOvYeNtZXZCzXfeVqCPbUAlFQo+S24JmSpQIID1LOZNkiwj4mKx/r2lSqA+guYNXxQdjoyIq31l1s57XnKdJ66z3tgiTZgjbrlifohGxJC0pcsoruV1vlVSHpCNpy2S5et1k8rRVv7g5W3ncWO+9XBsZKGmlpB8tnj0TuFz1QlZjrkXdXOuvtMEnSu1tWZNX4YD53EQSOBwUUegGNSuHsngCyxX8FYkxrBQVJK9aTMJVq7CUdDsAsn4KNHl67AWJsc+mXgYiD9jJTHLy/Tt9Ey1JSeQkA2eK/FHJoqZeiyfHgm6XYDyde2ilJy4O0GSquJuebukGFK4tScg71iQOAZsq9cdCGRnxPAlJeqZOPxFL2RZJHGs+VJ7vX3QE3JhtpObMcTx4oBQPiUp21FAldgGwmr1sfXJh+3WmnhyGS9vucCRttZuolc6pWPoBvWDHjWZEfq17JHirRUhI4nRHWCwZ2ZUbuq0A872tCibyFgqBQW+9IdC2fzkDzMuID16DM6RfyHKONwaeBo6303i81mviPijvCGFh+/pQoPON0vdhIj+qE70wxECfP4ss6sVDICbmHBTFA+Icd57QS0/KiLAZnwWYvvSpQc0ooy4UeI9D2W4hSQPke7Jpqg4KwbYyR6Ls6aKLyX3ips2qw4SF9CYhSFK+LinJySKYqu89qaTA6gyVsJfw7ooAoX5pHtruChD6KWKWwoY5e40ZGOYH83HcSiHRDJq67YZvQ+kqlJqi607qm7K6SH3aULTBRlhQQx44rFd0gmZoXg82QHbXho3WSkpAbO/hhnQo2K2tMUWATDkVJjmggUEl26XADzV1Vkix1km1RpySIpq/vgfsYTe4t1K3mN98qbQ5EDlMsh/sCGL/PGYCAgMu4i6vraKVqrLoqLbboOQHJga8mICAGNu8ka0i8rzvjDUHmWnevYXBmOj8CZQvb2aYGMCMgn6ziCU3DnBFIKVsWIKrGVypCrcu5AfvTYH18YAZSfobAWhQqb6QbjJwZSKnsDjEOAGL7+p64CNBespFIK52qQMR0dF3Omwog53MWIMInOoQcUliNFSI5UDk0lwbKGEW9C0k/h8gXJQ5CLy1VKxVaA4PqVG9TWi31TLvhQKULp4E1rFSpXab8X5wqoESt/aE6bB3IDw9WQ9vpeyKuaIEz1el8eOnZtZuQdCDCJ7oslKBdr1B6WRqMF7faI+GGtcO6yKFjriQusgJZUmlB0vboDMYz2rUPCBDu3J2iJ5hsqlC+KdY2bjavzKNoJ9oRIOIKbJfGYcxXQd25AXe9eYBPm37HFnaenQ8Mqw3UkYAVnmedH3AijrZbrNn1G/WwGwb4007hE1z4+iaESg1zxCFS6/r1FRgQcS25U+UJjOe96vwANx1zlKVfR2YfASIiYCehD2GS32vhXtpux8SFSP4e6IPGLxQqyMm4SztP3zyuKQfRs6/Ncv2Kq8gKuVzSoJznrTtvvZW5mA9ukbOIUbELtswXvHxzaV/O9m848gTmlBwr6gTrnS94KTcYXCKgRAJS23X6KEECs0Do9ZwqgSACVQcUiHAlLtKr7dbYPxOh3HPktEFUOiz06kzLhZNOqxJt36T7zpyBSfpyjZCLrQM7KeiIbXeZOuxvYrngDn3dU5C01M1AOwyoUvh3e6jbZct0trUiA60i2u28wz+MgVzX9WI3WiDXoi2pzEDANpxNgokv1aytLgRyyVYQhO1FZKcIO8epdAEsI3FPOQkEJOYtKya6rmt3ZbGVb6YyqjfWl/H9LisQWOpAXMDsct26rU7GUu2xMfjU7XYHhltMbaLFv1SSEiFYxgvwy68HStdA6ECqVMdIZI6EgjZYKZCfrzMAgd8+NV1yhu9n+pBRdsMWsNX0Z2FMQOBVdIbr87Tdb28yreASGMqhF+TagUg7cWeUonh+Xgsj+uCVXP5Y/Suu0p7iKlHu63OnLEHUGjlcgGJLGSwHIDKStNxX76taxahM+MZI2JbMiPn7YhYgc3vS19HWltuKj8MP6XmT/lmFIGzIZt2gHy5AtM9sDjrp/b5F4XTQt1qstY3rT8yTrHQH1JfcMuq2YUQThMmmYtRtX66zAlE+kZbSy6fVj/1+/yP2VbaSdrvL/YV6Ir7jFoZJUl/oL3eJrwh2++3i2aTVV0roa19m8Im0KrV1G6v9RhAixfEpH4NGX7sCO6e16276DT79Dw7fRHQB4vk5xEGnHZprsRmY1qq7sfsyw6+47rt+L/Tb+7bDpxUyLHb9ysnla4jOQObmtm7tXdY+LAYehy6td06nZPl2tj8QxhXLpZrun+wQUGzfBTi8c4ThBYQ5FSNXXL/pCEn9uI1MFtdRHYhUdKPh8Egyljwx1DDfOnxxujIQ7MvgBVW5JMm0BkDyu7MEMrd3g/dbsfKBBEJ9r2pmQNSPunKqWFRDLGZOnZX8DUBwpjjkdBAi1vvf7YOYBRCcKS4nktwY8tWbHZWBzPUQn1JhUxc7sun2heZZAWFLLk2+/Cu2sEWZ+4fMZwSEWWLVPfqeVkAWZb+qSNVbgbD4S7mYvevlSnQcrnHVzIEwrsgCNvDZQlSWgH+rc2MGQJiuSGrvtl1VT+NFeW/hy9abYMwACLNgn6GyuG21K2dcD6pZqhkDmZMjsIHl0yR17ZyAZ1SF02yAyMt6y7IkSPoSOxwW5A40IyBKJq9DLxSDZF32gsb8oTvNCojy8ZW1j+jSHfnyXlUHqNLMgGiZvO66/CnBNBG0oOVOfKN1kmYHBH4EvWDL4ONmox4UG2+tRT2bdei1CDTSLIGgy8e1jQGjazQjNxs1z2mmQNCgmKTztzsPQLMFwuywS/orI7e8mzPNGgiLJG3fMMno4I0RiUazB8KgWPOrR7NTck7/BxDmHk1Z75u3xoco/T9AmNrvH6Da8nA3e2Zk9H8BSWlv//PX8iMzf05/beFfW54J/Z9ACuql9L/38h8ZuoixeKZV0gAAAABJRU5ErkJggg==;" vertex="1" parent="1">
          <mxGeometry x="137.22000000000003" y="110" width="55.56" height="70" as="geometry" />
        </mxCell>
        <mxCell id="54Q1VLm8ovTNl_bD1-47-4" value="" style="rounded=0;whiteSpace=wrap;html=1;" vertex="1" parent="1">
          <mxGeometry x="490" y="90" width="160" height="110" as="geometry" />
        </mxCell>
        <mxCell id="54Q1VLm8ovTNl_bD1-47-3" value="" style="shape=image;verticalLabelPosition=bottom;labelBackgroundColor=default;verticalAlign=top;aspect=fixed;imageAspect=0;image=data:image/png,iVBORw0KGgoAAAANSUhEUgAAARAAAAC5CAMAAADXsJC1AAAAY1BMVEX///8Al5wAkZYAlJkAjpMAjZPC3+C02NmZys3M5OV2ur3I4eL1+vrR5udEpqri7/Dt9fZesLQvoKTo8/SPxciDwMNTrLDa7O2lz9G83N2IwsWgzc/y+Plrtrk8pKgYm6AAf4Z7guRdAAAULUlEQVR4nO1dibKrOq4NNg4ZyDyQiXD//ys7JHi2ZJlhV716Z1V137MTIGLZlmVZkmezPtjNb4/VYXs8Nsf3dnu9HurV41ksd2Wvpw1AVZzrbWah2dbnYvN3kpyK1VEwxjjnSgb+xedDkV0f99PfCLIvVo1o5chctKKI7PCsphdiecly5ktgC5Pz+jY1KZvzhwxUkKxtoMOkgmxWLCKDlkU05+naZ/fI6IIcF7tppHg2OU0IKUvenCdpnuIo0gQRxxusUcrXB+WrbP+VIMT+krMUIaQo1/lwAmz5F7yHIEzUUH9t/svFf7XYzmbZf2QpXqu0zmFQwrLbCDQonFkPOr6CiHe4bV5lsygrJspTLqhSPPrS8QVji7HoeBI1R5gS1tyDT22es11+vN8aIiFFYF5LpeQ5Bh3Lpmfv0II0oV7yIaQSi3r7IBFyeg+V4itJFm6cBJS1GEGQfOvrki8huzyvKIQs0hQ6JsmwGec+uJ/+wMXKfXS2mFX/zZrt6b+oFK9RuoeU5NyfjvKQjycId3prdZqVm9lp//m/COZDdJgP1vQ11dbjCpIf+i10HmMMWgs9O8lqvO7xA2frHmJcxxsuCuydYg3+8DpOIEh+SRWjbEbtpRLpbbMcd7hIsHfasDmNpNR9JA6b5+jjtgPnKRptN0EvlWDXBEHqsdWHAUG3jaoJ+fi0zZHcW7eTCiKoBvSU/aMF5zQPRXmcatx2yB8kOU4T89FKErWBPnhlE/PxGb6UyeZFFePrRJXgaVpYxP0keyofrRx53no2+ee/LOhlhUBhhDLfto7T42pR3Nfr+f12K2638+XwZoLqYvz0kSLGB+21PoK8Lzft7i93y+JyZRHHryFHdNK7xp/ExHsR7POv5fNA5UTgjOwpT+HieA4Pvl1Rc5ogIuLAusQUCM+bG2puVmea8xXtIwT9wVmG+2w3NFd0jo7eeWTe5/mVoA93F4qnL4ftAIKdnAMuQQvLmuC+EMict4/wkV+p5l1BcG8J0IyPzrfsuKTJUZ4JTmnYLsIFYU3KQmQeX5QJgN5thA/OYirZxDNGCd9Ct57ROwXNjNEoshglLKgE6shtyf6Mc0SpQW7wCltI8ayHeycmScYDr7bA+eA8fa/nFfG4AV21QW5hh2QpWpwi44YfvVvm+Po27yfIHDdrmtA9WMvE7RcIC/z9uLv23UX46L3vdcCaJmSxYjNMxIpCUeEmBXM0E0oHzwZsXN+wYROYew+w3DlxjgOAOyNtcwQ1lBk4HZBQIcOGv92rNzB/grI2xXBGVZrZOOg8x7wtlUS8EHvPm8nf4LUD+0eLAlcM6roldl1/PaYBv6UhxRdrsBGj61IKNljLK8VaYlfFVmE0wIww+/mgjcpGaJcPdqhu6AwjzEIdotdNwMY4Ny9bQh2E95v2faD+jZ9hhM37CR7hCEA9YnURsG2CFksv4B6fGW4oj9U/Wjlg2vVFO6iDYEvjZEkQQtqOiBjK/c2xAEDNzfSaYAXIOl7wTwvMe53fL8iUOI4ek4DmdmPVC0nqrzQGAeyIrTQIH0PtDxfQVJPLxXcBEJKPHWqK2hkgVfGtvrPGg+AaOAFicNkTAZXKx26ZD/XpW5OcoNe5htgTxIDms+6noGVdPkEAPe6DCoER3tAUmkIItITshsQzLCQfV5V1QNaQQQjKwiGZEEBJdK8MjBg2TYZFWuAJbZ5LJgSa47+zSBkeMTzVhUoEYhgFhKDFTqQTAnSRvN1yugPf0Z6cjnXCVMPjj2vRQ+zwS39ts7BVNtoixseD3EeonpgehITtwO+wCA8nNnYeg4HYvouSgarWexBSBRVFa6y+wj2Y2Fl7AfV7GCJ4bj0IPQgBZl7WhvkFhRnfKDMQ20JOfLdehITHzMd6fwa/mHLEzODVpCUCfcnfh5B5sCOwNSBb3u9FycA2xX4gzrhfmIJTracyqCrYbfYOSjPM4R8Hum36Ew1/s+X1oGHxaHx+xczcYJt8bNVw84T1+65IAfpCsbk35tu+58aKzhLdABKCAiwieB0mhIWfVAhGR2SewgdNdMAA5iTpNX44Bwm5hgnJw65DyHESRGTZjg+aPJYlMJyQW/AJb4CQ8DPGJAQNZ2NRJ+pwQsLTTAMYKH9ACLKvTTDJhhMCbJ4FxYImmXEJCZuE3xeJJ+j9MSHAym5cQmDrjGCz/zEh9R8QsoG1KmF//Y8JAVYyoxKCzLt/okPWCUoV7CEip4Phb4TG1uXRANDhhIRb95ikQ0YEtDei5IrAshEtEgygW+SLoArbhglJSQPrh4iTKLrUPc3XCkvzxrv+fD3Hlr5BnQ6Z7uNt+gOIaqMkB5VxX9TEVQhuaPJLkqU6GuI+s6QNblNyslcp7Bh7AoRMXFSJsF2V4vXvc1s40/KjhsPtM63D7E5wIfZ1EFEJCa/tWJXkDxkJNCcz6syw0YeQcESsKGfHICFkh3cfEPd36Xq1DyHhaf8zm9QQU5OBGhMBmYc+ehASNuzanwzbJ0kpOml40TfuqJqsByHhEdP6YcIm/YReZuq+XRZOpwkhnRAgJqYNEHkBX0018QLRKGFCiDNNOiFBh2qntsKrTp5ccoSGSD6Mg7gr8Yt0QoCAma/WAuIhI4vVvojvUFmA8hRtGGtsUowZ1E1/q+OwEqE2TiJSI6og766NkwGSGIAU3dwKzIJT7P+jWU1hKabQ7kDon1RZQKuNU7DPQnwDMyDG+MoMmEeUPym8QTFB1F2JpHjBX42TKGMCymNTahOK/SZbikTA2Tu8hjOYkJT4foCWltqTDMXdjyxJeJHwk6VEkyBHDTEHl5Z6RjuB6UNjDhokiLm10bElMGHjig7IUjbVNzSoxvStIku639jE1nx8vBhRsF1MHxBgivhpxv2BhpX9LsFsFD5WH4GjZC0/Mmg/jqXikbRgFY2KTEKjMQKn7Nh7OLATnLwER4EZILoXouk0bAzNipTgcjYa4CXGGIyEo2R/MAtEoBWQ8GJBJCClfNynI/skwzMisdQyOx8Gy7zOxNAMQIQP32cadK125A0UBC0laLuScW8aG2YpYqWv/FU1pvV6VlPpgJaadBMM8aw8fhww/e6w4hCBcAd00mv65++iFWP8nooX3OH9KxGg835oZY9vluR9l75nvMl9Uxgx8L+C9KwwjZbsCOtrfHeAHft0khKviBrMh4kUMUur2UWSA4r+wMsgcrFKbpsCr70XtvpKlI+sLTST2jYROSBXGGoptvexcxIlVaROPpSxHS3oyvM6Rbnur5GiXWDeVjTxmucPsiS7Q6QOIbxyxOw4KciKLEjs8BMs8CJSU+0ryYFkMC6v0ZpuSNQUISX+00tICXmLWMVMfEVPcIpzxi+RqMndIl64kyMlGWkpVzxvnpFusqcc0IM/glQXmrfHgwFrrXL9INVTjXg4KBEkn96eb5+wgp0fCILEfE8lsRJyW495e7mtjaP+ymr+bI/AIz2AxSYKGiMZdIjcvqhJtX/j5bJJtX87Yb5H/QneHI/HhotvfWjirQQvaaQmoikHE1n9nFffcLtyX90XdUZsF0ppoz+oYk5LUE4qNtK2TS7a/+UJZbtp7q/pzoWQIJV1b1fJUxe6J65HyBXVe4K8u7Gf5ggTJQd5fTbRWSpSjgTP15SHQySVvpritJ0OpAopCqupjlNJLRV3megcE57qK47UlewvR2oJ0Pug4w9BOZpkl9dpivHbQ45oOeU+SDpsR2H0Q7t6yjH+MWZ9j7qLVJhOl6Ov17wafDqlCZ71rtw7zrmQSo4BW16jHQ35meUG7SGso0XzqRAD9zIoK0YCWDa0kPF5lLbhfHDMS/UeTgkfvOn2wYtyFEhEjvQD/0JYDqSEi1X6AYgh7K7DKMmTvdMQNlGHIEZHPV78TzWAEnYcM0JsRz7i3pGCXcYtELdbiT7qlbPjaFWdJYot+SgsKYU4ThAOXT5pZz6ZguTbkSMZf9g/30RP1FeI7DF2gVqJTUp/5YytRiwt7eBV1PEz0zhn4nieio0f1quM0mE/klyny4XqUN3qBnLUtX5W8b7Mx5lWInJ8D5HDoqMZOxQT5sqZKDfF43BkX8+yRC74uz7fp+0ZDjaL7yl/3KWCfz69hk/jmxTlqdrM7y3mm2qqeqMx7O7n+s1F/mucPM+zbb24T5yK/X8Ar9Ouqqrd6Y/GyD/8wz/8wz/8wz/8w/8/vHYwBhjHy0V93W4PjyK2Ej5qNJ7Rt86aX03bLGuOx+2hviwKb8EgEyybFu1ztvV57tuPskqcG3df/z4Xovv7CVe1FTqPslFSWw+b/z5vnI3+qm4XQF+wnK8wB7gZEukXirNTfH8PZPnB5sRLWGuvElt3FS4zUtzdXllfTGbRhosF/R58cW9yK590AttnbpSOu5qzDHZkmXUk/MTdcM4zF1ezAwAVSRi3f3UiQuwieZ3A3CRkGfCjsDe0BLLyZrwKEVASOOfGSIRTGt+mm2QqQqxSmwFCwvEEPAu7cOzKK17MAESIlRgFEmLzNhUhViSuTwiY1x2u7menmnnVu2BCjMBkmBArLHQqQqzD+TxC4IIu4cx+J5TZDb9WhMhS5carKg2hCGG/MqL2kE0nRN6uEyXlv8KEmOlRHiH6IbwNWTSd5sGytk5/Eo7fSRLCblVVbea3lXGEvEqykISw4rTf70+bYmUEWOt2oBKisQW/sUtfGjXHXEJ0NH++ve9bV6gRWBCIvpfvIh/vlplRhCgydYdWqeJr76LPVUpg1Q7TEWKMdIcQffyUNil0XQrmb950dSK4rBfhpgr4hOiDWFX/DRAye6kgeqVspiPEyAhyCFFGhRk6rGKmA4kRkqpKZlc5dUQDhCi1o6orhAgxspNk2K4ixJnKRiBEG2cOIarnL4I3C3fqlWYqU6fOOGUzQ4ToInoYIfoyqUUmJETnrduEzF1Rf1AleLx0vq4MID8oapyE1hAhKi9XdtQwIdrkYxMSIq+Q2sAmRF3lLG1UJ3ezEbtM81aVqiFPJ0Q2C0CIUr/d51MQwruhroavTYgaGs7keXfbtIM8lKe9XqbP2okc2JBR9AKEqNPBOummIITJ4xXkEtoiRFXScY1SdRqRU/BQitgY/7aWRUFCJHXqSoAQVemgY64ALhtEyL6TRioqixDVdJ5NKs01Z+KVD2vnT6VorGT0ACGqNIg6kwYi5KFMzukI2UlxuurdFiFnQIXoRnXsLinhlyapA6264D4hG6VsVE0jiBC1ThITEiL7YWecWYSo1/b8PIoqq8SQHH+5dY01Fc3tcV/OD8rw1Y4viBClfX8c36chRInoE6Lu9xYtRXAwPaSm/v61cXWlSQi/1vVha2a2GUVGIEKUa+E3uO5WhxyNEGVc3jxCZKf3MyG8ieGLxnySrn9nGqvKsnEPDxNGAChEiKoLzSYlRE3vHiFSWJ8QtYYzS1FKT4FUjodABwP8IXZZD5AQZRB+f6GYiBClCucuIcpw9wjZhAixmDUENmvvBglh3D5KPUpIPi0hcui/BxKyNSbdFvrAE5wQ7nqs44TsMULqoYTspX1ZkQlRQ8ZY70prTS/npLViHHoX7CFu0SaIEG0PziYlRNlTB4cQwPyahU02+ZnWodIpYlSa1S5EYQRFOvmNECGqehe3CXGyNAcPGWUrfnqiRYg0lf2TL0LqQS2PvBczBpZ2Ic72hg1iH5wIEeI8DyLkMpgQY/RbhKhpwotcXfhtLweYabyqiVfpTEXI95HaSrXse4gQ+audS2FCQrRxZhGi/IBessrK7ztKzz5uzw43ZcgoU1f90u8Tte9pHbIFEXK1OY8R4lcGIhOiTaq1ScgzoCl+kIPJ6OrK28j9s7D0AxxC9ErX7CIQIYq9n5F/j+gQv9IJnRBpQjQWIUoDeu51pRr1R0jpP+O6ufMSSk+a9Q0AQgrnV9cAIXKk+5sCdELkG/LuYT9CtLTORq5cZRkKdI+mPaqJ2yVEDQPTogEIUbtLXX/bOL3NuS7gAk8gRC1fM4MQ3REcrbrwlQuyX5gZGx0eIaqEohHlESZEnT4gCZD+K2e/VFor3C/2m0CIU7q9e1Nvg6CDvMxwD+JF3ZTPTRGilKgcaoHp2iJEl5iVylJtGtlj4w50nDRCnAqCjtfSqWCiN7T1Z8pmsiEvlF5Z30Gk/LM56g/RJq7uruoTS4nItw6cgZRCiF3jtyNEn+RuelX3zL7KlJdfLDyUsXuDCFGvpV0JPiF7vYFqRAmoRuSGU04W7ArVJ0whxK5WLl9V/6SeFk/qKsM5uAI0u9JNV4cQ3eWUbvB9qp9xVZan5dPM6TT82sYxUepxhT9tlRKzrWwe4zOQEGvZJQnRFew5v31v3usymuYelHxvNx5EHZqcg4Qo1a2sFR0OIYRwwiGsesbGx9diV76qm6pIYXSQp5DQl0uoV/AJscpMq8FgHHLARLZ9Z0a0mXEWhtrC9NbF6t3mICHqN6SiQQJm7LI/RsHSNnYvN6ImDOFSAmZMQsz7tHaw7zeHlenkWoCDU01UK5AQ5TeRXQ4mxK13DVYaNOs29SVkFiQEjCCyCj5L170fVKSk4SAhesruzoeCCGF+IWOg0qBFXG9CjIBKY/4ATsa2ikZIKyZQy/ZkL0CChChF08kXJMSLyvwhVIaK2w6c3oSUxog01rdVIJGTc8uIlIZJ6AQwZXCfQUK0+vrZDoHAXZZ7cbsdFm6WNhdXO0qjNyGGcWYt+Eu3BAgXTtGIa5fPGApMXHWB1b8v791fdu2+mwy+/pXCmpux2HkusuvjDmcG7lfG7k7LnOuJfcIHhetZpv79ph0mXilBnGI/m6v6zTYU26uau+kQCoPfyy+X5l9L+wWXy/W8zVb9TUVlZeAUj88vizr7Nolg16efXVpikBftgnJtFNzH7m+HrLUJ+PYxSVWAwSh3VbX7i3Rw60dD/fZ/DXkKAbbI28AAAAAASUVORK5CYII=;" vertex="1" parent="1">
          <mxGeometry x="514" y="105" width="117.62" height="80" as="geometry" />
        </mxCell>
        <mxCell id="54Q1VLm8ovTNl_bD1-47-6" value="" style="rounded=0;whiteSpace=wrap;html=1;" vertex="1" parent="1">
          <mxGeometry x="490" y="300" width="160" height="40" as="geometry" />
        </mxCell>
        <mxCell id="54Q1VLm8ovTNl_bD1-47-5" value="&lt;h1 class=&quot;mt-4&quot; style=&quot;box-sizing: border-box; margin-bottom: 0.5rem; font-weight: 500; line-height: 1.2; color: rgb(33, 37, 41); font-family: -apple-system, BlinkMacSystemFont, &amp;quot;Segoe UI&amp;quot;, Roboto, &amp;quot;Helvetica Neue&amp;quot;, Arial, &amp;quot;Noto Sans&amp;quot;, sans-serif, &amp;quot;Apple Color Emoji&amp;quot;, &amp;quot;Segoe UI Emoji&amp;quot;, &amp;quot;Segoe UI Symbol&amp;quot;, &amp;quot;Noto Color Emoji&amp;quot;; font-style: normal; font-variant-ligatures: normal; font-variant-caps: normal; letter-spacing: normal; orphans: 2; text-align: left; text-indent: 0px; text-transform: none; widows: 2; word-spacing: 0px; -webkit-text-stroke-width: 0px; white-space: normal; background-color: rgb(255, 255, 255); text-decoration-thickness: initial; text-decoration-style: initial; text-decoration-color: initial; margin-top: 1.5rem !important;&quot;&gt;&lt;font style=&quot;font-size: 12px;&quot;&gt;MH-Z19 CO2 meter&lt;/font&gt;&lt;/h1&gt;" style="text;whiteSpace=wrap;html=1;" vertex="1" parent="1">
          <mxGeometry x="532.62" y="270" width="130" height="70" as="geometry" />
        </mxCell>
        <mxCell id="54Q1VLm8ovTNl_bD1-47-7" value="" style="ellipse;whiteSpace=wrap;html=1;" vertex="1" parent="1">
          <mxGeometry x="510" y="314" width="15" height="15" as="geometry" />
        </mxCell>
        <mxCell id="54Q1VLm8ovTNl_bD1-47-8" value="" style="endArrow=none;html=1;rounded=0;entryX=0.5;entryY=1;entryDx=0;entryDy=0;" edge="1" parent="1" source="54Q1VLm8ovTNl_bD1-47-6" target="54Q1VLm8ovTNl_bD1-47-4">
          <mxGeometry width="50" height="50" relative="1" as="geometry">
            <mxPoint x="390" y="330" as="sourcePoint" />
            <mxPoint x="440" y="280" as="targetPoint" />
          </mxGeometry>
        </mxCell>
        <mxCell id="54Q1VLm8ovTNl_bD1-47-9" value="" style="shape=mxgraph.arrows2.wedgeArrowDashed2;html=1;bendable=0;startWidth=50;stepSize=15;rounded=0;" edge="1" parent="1">
          <mxGeometry width="100" height="100" relative="1" as="geometry">
            <mxPoint x="270" y="144.5" as="sourcePoint" />
            <mxPoint x="360" y="144.5" as="targetPoint" />
          </mxGeometry>
        </mxCell>
        <mxCell id="54Q1VLm8ovTNl_bD1-47-10" value="" style="shape=image;verticalLabelPosition=bottom;labelBackgroundColor=default;verticalAlign=top;aspect=fixed;imageAspect=0;image=data:image/jpeg,/9j/4AAQSkZJRgABAQAAAQABAAD/2wCEAAkGBwgHBgkIBwgKCgkLDRYPDQwMDRsUFRAWIB0iIiAdHx8kKDQsJCYxJx8fLT0tMTU3Ojo6Iys/RD84QzQ5OjcBCgoKDQwNGg8PGjclHyU3Nzc3Nzc3Nzc3Nzc3Nzc3Nzc3Nzc3Nzc3Nzc3Nzc3Nzc3Nzc3Nzc3Nzc3Nzc3Nzc3N//AABEIAKAAnwMBIgACEQEDEQH/xAAcAAEAAgIDAQAAAAAAAAAAAAAAAQcFBgMECAL/xABLEAABAwMBBQMFDAcDDQAAAAABAgMEAAURBgcSITFBE1FhFHGBkbIIIjI2N3N0daGxs8EVIyQzQmLRFzRyFiYoNUNSU1ZkkpSiwv/EABoBAQADAQEBAAAAAAAAAAAAAAABAwUEAgb/xAAkEQEAAgICAQQCAwAAAAAAAAAAAQIDEQQSMRMhQVEiMzJhcf/aAAwDAQACEQMRAD8AvGlKUClKUClKUClQTWIvmo7XYmwu5SkNqV8FpPFavMmpiJmdQiZiPeWYqM1WM/awkKIt9qKh0W+7u/YAfvrHq2qXcqymDDA7vfH866I4eWfhTPIpHyt+lVTF2rykq/a7Q0pPe08Un7Qa26w65st6cSwh/wAmkq4BmR70qPgeRrxfj5KeYeq5qW8S2ilQDU1StKUpQKUpQKUpQKUpQKUpQKGlQqg1nXWpk6ctoLW6qa/lLCDyHeo+Aqj5cqRNkrky3luvuHKlrOSazWursq76llub2WWVdiyO5KevpOTWv1tcXBGOkT8yzM+Tvb+kit6tejE33REWdACU3FCnRjkHgFnAPjw4H0Vooq7tlvxLifOO/iKpzL2pSLV+zj0i1piVJutLYdW08hSHUHdUlQwQe418cuI4Grm15oxF7aVOt6UouKBxHIPjuPj3GqcdbW06tp1CkOIUUrQoYKSOhr3gz1y1285Mc45Wfs01g7JWiy3R0rdx+zPKPFQA+CT345earKBrzPHedjPtSGFlLrSwtCh0I5V6Ksc9F0tMWcjAD7SV4HQ9R66z+Zhilu0fLr42SbRqXfpSlcTqKUpQKUpQKUpQKUpQKx9+l+Q2adL6sx1rHnCTishWs7RnS1o64kfxISj1qAr3SO14h5vOqzKiASeKiSo8yeprfNCaJi3u3uz7i/ltW8hptleCg/7yvHuHrrRBwFZnS2openJ/bxyXGFn9ewTwWPyI76289bzj1jnUszFNYt+Xhx6lsEzTtwMWWN5Cslp5I964n+veKtnZb8S4nzjv4iq7bibRrWw8CHo7nEEcFtL/ACUK5dHWh2xWJu3PrS4tpxwhaeSgVkg+HA1m5uR6mLrbzDsx4ul+0eGp6X1otm+ybLdFKU2ZTiIzuMlPvzhJ8O49KyevNGtXtlc6CEt3BtPHoHQOh8fGuxpnSLNpnzLrM3XJr7zi09zKConA8cczWq7Q9beV9paLO5+o4pkPpPw/5Unu7zSkds0ej7faLT1x6yK84g+NXDshll7TTsYqz5NIUkf4ThX5mqd81WbsYdObqzngS2vHrFdvNjeFz8adZFoClKVjNIpSlApSlApSlApSlArUdqZxo2Vj/iNe2K26tV2nN9po2d/KW1epQqzD+yv+vGX+EqMpSvtptbzqGmkKW44rdQhIyVHuFfQbZLM6Sv1wsV0QqAhb6HiEuRE8e18383jV+tKKmkqKCgkZKTzT4VpmhNGN2NoT7gEruKxw6hkdw8e81tdunxrjGMiG4HWd9SAtPIkHBx6QaxeVkpktukePlo4K2rX8pV/tT1FcIpFpjtOx2HkZXJ5dqOqUnp41V1X/AD4tq1baXWFkOtBSkb6fhtOJ4cO4iqW1JYJmnrgYssbyFZLLoHBxP9e8V18LJTr08So5Nbb7fDFVYuxj+/3T5pv71VXVWRsXR+1XRz+RsfaqruX+myvj/shalKUrEaZSlKBSlKBSlKBSlKBWF1nHMrS10aT8LyZak+cDP5Vmq43kJcQpChlKhgiprOpiUWjcaeZhxGatHZPbrSY7twS6l25JO6pCuHYJ8B49/oqurxBVbLtLgr+Ew6UejofSMGuBiQ9HKiw6torSUKKFEbyTzBxW5lp62PUTrbLx29O+5hv+0DW/lfa2mzufqPgvyEn953pSe7vNbVst+JcMdzjv4iqpKru2W/EuJ847+IquTlYq48MRH2vwXm+SZlpujTd/8ubh+iwPJjJX5Zv53N3fP/t3f0rfdbJtCrA/+nThgDKCPhhfTc8a55j9q0panpDgSyyVqWQPhOrUSfSSapfU+opmo5xflHcZTkMsA8Gx+Z7zVdKW5GSLR7RD3a0YqzXzMsOrmcfbVr7Go5TarhJI/eSAgHv3Uj+tVOTzJNX3oK2m1aWgsLSUuKR2rgPMKVx/PFdPOtrFr7U8WN322KlKVkNEpSlApSlApSlApSlAqDyqaUFY7WNOLWE32I3kpTuSgkdOivyPo7qrCvTS20rSUrGUkYIPIiqz1Rs07R1cqwOJTvEqVFdOAP8ACeg8DWjxeVFY6XcWfBMz2qrIVb2ibvDsmz2PMnOBDaXHQB1Wd9WAB31WU6wXe3qImW2U3jqGioesZrHv3FSmWor0kdnH3uzaUoAIJOTw7ya681K5qxG/ZRjtOOd6ZfU+opmorgZEklDCeDLAPBsfmfGsNXZh2+bOKRCiPv73Ls2yQfTyrbrDs2uk1xK7qoQWDzTkKdPmHIemvU5MWKut60jrfJO2O0Hp1d+vLanGz5DHUFvrPJRHEJ9P3VeqRgV07Ta4lohIhwGg0ynoOaj1JPU13qyORm9a2/hoYsfpwUpSqFpSlKBSlKBSvh51thlbzy0obbSVLUo4CQOJJNYL/LjSn/Mlp/8AMb/rQbBSulbrvbrq2XLZPizGxzVHeS4B58GuvctSWO1SRGud3gxH1JCg0++lCiDkA4J8DQZWlQDkZqaBUVNKCKYoaZ8KBimKmlBFTSlApSoz4UE0rqXK5wbVG8puctiIxnd7V9wITnoMmpt1wh3OKmVbpTMqOskJdZcC0kg4OCKDtUrhly48JntpbzbLQOCtxQSM9OdRGlsS2Q9EdbeaJIC21BQyOB4ig6mpvi3dvoT3sGvNuy/SEbWVzkwpct+MliKHQpkJJJyBg5FektTfFu6/QnvYNeZ9nGsUaLuL05yJ5V28YMhPaBGOIOfsqR2ZsWfs11+21HlqX5O4252ife9uyrmFJ828PPxrMbejva2iqHJUBoj/AL110bWp/aXtDakXJ+LES4tCi3v/AOzRxCEA/CV3+cnwrv7ewBriMB0gNe2ugvmdeLbbnEtTrhFjLUneSl51KSR38a5Zc+JCYTImSmWGVEAOOrCUknlxNUR7owA6ktuQP9Xq9s1uO2wZ2ZRh/wBRH+41AsmFMjTmA/DkNPsk4DjSwpJ9IrFTNYabgyTFl3y3tPg4La5CQRVU2m7yLLsCU9DWpp52Q5HStBwUb7pBIPThmuhoHZjbdTaQeu02bJakuKcSwhlSQhO7wBUCDvZIPXl66C91Togh+WGU15KE7xf3xuY788sVQ8TUC/7Z1uLvDv6L8uUcmUex3Nw+O7jNcmxkqvMS/aQmPOogSoxWnsyMtnO6vdzkDOR0rWo2k4Tu0pWlVSJHkYlKYDw3e0wE73djPoqR6bZmRn4glsyGlxiCoOpWCjHfnlWJb1npl2V5K3frcX87u55QnOfXVXbYQdKaPselbdIfMM9op1ayN9xCeIScYHNXd0FY697L4Fu2bp1CmZJXcURW5DraikskKxlIG7ngDwOagX+CCAQeB5VhrjqzT1rkmNcL1AjvDm24+kEecVV2j9XTouxq8yS8oyrYsxYzqjkgL3Nz1b+B5hWF2X7OrfrG0z7ldJkxCxILLYZWkcd0KKlEg5OVUF9tz4jsMzGpTK4oSVF5LgKMDmc8qoW939w7Z23Gbu5+jP0jGyUyj2G5ut73XdxnOa+dkXbqvt70e++sQZsWQ052f8K0nd30g5AyCend3VgLlpSHC2ko0q08+qGqYzH7U7vabq0pJPLGffHpUi2Nt0uNO2d9vDfafZM1oBxpQUk8TniK+9kt3t1o2ZwJF1nR4jRefAW+4EgntVd9Yvadp+NpfZM1aYTzzrLM5spW9je4qJ6ADr3VrmkNncLUGgnL7cLjO7RluR5Mw2pIba3CroQc5IJOMc6gWveg3qa2sS7FJZnsp30EsuJON5ON5Ofe76e444KPGu7pe3SIDDypLSWVO7n6tJyfeoCd5WOG8cdM9OJqrfc4vuKfvjW8ez7NhzczwCjvgn1AVd9BjdTfFu6/QnvYNUX7n+JHmainty2GnkCAkhLiAoA7476vXUSFuafubbaFLWuI6lKUjJUSg4AFebdJK1ppOQ5LtFhuAfdZDS+2tjqxjOeHAdaDJ7abVD09q9p6zNpil2OmTuNDAbcCj74DpnAPoqNtD65WpbXId4LdtUdah4lSia5bbo7V+vNRpn6kjSY7ClJ7eRKZ7HDY/gQjgeXAefOayG2uxXOXq+Iq2WmdJjtwGkBceMtxKcKXwyB3VI4/dF/GS2/V6vbNbhtr+TOL9Ij/AHGsJt/sFxmzbbc4cR+THSwqO72LZWWznIJA44PH1VidRztc6w0khMiwuR7fEU3lDcdZelLHAFKSM4HM4GPGoHy+P9H+P9ZH8U1waJ2VN6r061eFXURd9a0lBjhWN04znPhW36c0nNvGxddkfjuxZ5dddZbktlshYcKk5BGQDy9NabYtR610daJWnkWGQSpS+zU5FcJZKue7ujCxnjzxxqRvOy/SVnsOoJEq26oh3V5cVTRYZ3MoG8k73BR4cMemtQg/L+v6xX+Ga23Yho2dZG5l3u0dcZ+UkNtMODCwgHJUodCTjgePCtQ11atQ6Z2kvagt9vffbW/5RHeQwp1BykApVjkef31AyvukP31l+af/APmtw1l8i8j6rZ+5FYDW1jvOvdAWe8phhN4jhbjsQIKSpCiQUgHjn3qSB1rUJWptZ3LSrWkFWCYQEIYU6IjvarQnGEkEYHIZNB8WHP8AYrqv6wj+0zVg+57P+Z836xX7CK5tMbPXo+zKdYJ6ktzbkFOudQ05hO4PRup+2q+05etZ7PEzbQmwPOds7vgrjrUlK8bu8lSRhQIA4UHNso+V2Z55nt1Gofl+a+tYn4bdbFsU0fdYlzlajvcd2O462ptlD6d1xZWoKUsp6cuGe+sJtRsd+tO0M6jt0J+Q0t1mSw60yXEpWhKRuqABxxT6QaDedvPxCP01n7zXBsx+Rx35uZ7S6xusZV61Zsijyn7W/wDpByYgrjR46yoBKlcd3nyrM7OYMyJsmciSokhiSW5f6h1pSV8SvHvSM8c0Go+5v/vl7+jx/vXV6VTHuf7Tc7bLvJuVumQwthhKTJYU3vEFecbwGedXPQDxpSlBGKYqaUEAUxU0oIxTHjU0oIAxTHGppQRimPGppQOlRippQRTFTSgjFMVNKCAKmlKD/9k=;" vertex="1" parent="1">
          <mxGeometry x="390" y="100" width="69.56" height="70" as="geometry" />
        </mxCell>
        <mxCell id="54Q1VLm8ovTNl_bD1-47-11" value="M" style="verticalLabelPosition=middle;shadow=0;dashed=0;align=center;html=1;verticalAlign=middle;strokeWidth=1;shape=ellipse;aspect=fixed;fontSize=35;" vertex="1" parent="1">
          <mxGeometry x="107" y="254" width="60" height="60" as="geometry" />
        </mxCell>
        <mxCell id="54Q1VLm8ovTNl_bD1-47-18" value="M" style="verticalLabelPosition=middle;shadow=0;dashed=0;align=center;html=1;verticalAlign=middle;strokeWidth=1;shape=ellipse;aspect=fixed;fontSize=35;" vertex="1" parent="1">
          <mxGeometry x="195" y="256" width="60" height="60" as="geometry" />
        </mxCell>
        <mxCell id="54Q1VLm8ovTNl_bD1-47-19" value="" style="endArrow=none;html=1;rounded=0;" edge="1" parent="1">
          <mxGeometry width="50" height="50" relative="1" as="geometry">
            <mxPoint x="187" y="230" as="sourcePoint" />
            <mxPoint x="187.22" y="200" as="targetPoint" />
          </mxGeometry>
        </mxCell>
        <mxCell id="54Q1VLm8ovTNl_bD1-47-21" value="" style="endArrow=none;html=1;rounded=0;entryX=0.25;entryY=1;entryDx=0;entryDy=0;exitX=0.5;exitY=0;exitDx=0;exitDy=0;" edge="1" parent="1" source="54Q1VLm8ovTNl_bD1-47-11" target="54Q1VLm8ovTNl_bD1-47-2">
          <mxGeometry width="50" height="50" relative="1" as="geometry">
            <mxPoint x="390" y="330" as="sourcePoint" />
            <mxPoint x="440" y="280" as="targetPoint" />
          </mxGeometry>
        </mxCell>
        <mxCell id="54Q1VLm8ovTNl_bD1-47-22" value="" style="endArrow=none;html=1;rounded=0;exitX=0.5;exitY=0;exitDx=0;exitDy=0;" edge="1" parent="1" source="54Q1VLm8ovTNl_bD1-47-18">
          <mxGeometry width="50" height="50" relative="1" as="geometry">
            <mxPoint x="225" y="261" as="sourcePoint" />
            <mxPoint x="225.22" y="231" as="targetPoint" />
          </mxGeometry>
        </mxCell>
        <mxCell id="54Q1VLm8ovTNl_bD1-47-23" value="" style="endArrow=none;html=1;rounded=0;" edge="1" parent="1">
          <mxGeometry width="50" height="50" relative="1" as="geometry">
            <mxPoint x="226" y="230" as="sourcePoint" />
            <mxPoint x="186" y="230" as="targetPoint" />
          </mxGeometry>
        </mxCell>
        <mxCell id="54Q1VLm8ovTNl_bD1-47-25" value="&lt;span style=&quot;font-weight: normal;&quot;&gt;&lt;font style=&quot;font-size: 14px;&quot;&gt;Window Drive&lt;/font&gt;&lt;/span&gt;" style="text;strokeColor=none;fillColor=none;html=1;fontSize=24;fontStyle=1;verticalAlign=middle;align=center;" vertex="1" parent="1">
          <mxGeometry x="87" y="310" width="100" height="40" as="geometry" />
        </mxCell>
        <mxCell id="54Q1VLm8ovTNl_bD1-47-26" value="&lt;span style=&quot;font-weight: normal;&quot;&gt;&lt;font style=&quot;font-size: 14px;&quot;&gt;Ventilation&lt;/font&gt;&lt;/span&gt;" style="text;strokeColor=none;fillColor=none;html=1;fontSize=24;fontStyle=1;verticalAlign=middle;align=center;" vertex="1" parent="1">
          <mxGeometry x="195" y="310" width="100" height="40" as="geometry" />
        </mxCell>
      </root>
    </mxGraphModel>
  </diagram>
</mxfile>
